<?xml version="1.0" encoding="UTF-8"?>
<svg id="Layer_1" data-name="Layer 1" xmlns="http://www.w3.org/2000/svg" viewBox="0 0 1188.02 279.95">
  <defs>
    <style>
      .cls-1 {
        fill: #9bc652;
      }

      .cls-2 {
        fill: #a97c50;
      }

      .cls-3 {
        fill: #a97c51;
      }

      .cls-4 {
        fill: #183a21;
      }
    </style>
  </defs>
  <path class="cls-4" d="M285.77,110.98c-4.8-1.47-8.64-3.5-11.51-6.1-1.33-1.12-2-2.56-2-4.31,0-1.26.35-2.33,1.05-3.21.7-.87,1.54-1.31,2.52-1.31s2.17.46,3.57,1.37c6.24,4.63,13.35,6.94,21.34,6.94,5.61,0,9.91-1.05,12.93-3.15,3.01-2.1,4.52-5.11,4.52-9.04,0-3.08-1.4-5.39-4.2-6.94-2.8-1.54-7.29-3.01-13.45-4.41-5.89-1.26-10.72-2.7-14.5-4.31s-6.75-3.8-8.88-6.57c-2.14-2.77-3.21-6.29-3.21-10.56s1.17-8.07,3.52-11.4c2.35-3.33,5.62-5.92,9.83-7.78,4.2-1.86,9-2.79,14.4-2.79,4.97,0,9.56.7,13.77,2.1,4.2,1.4,7.78,3.47,10.72,6.2,1.4,1.19,2.1,2.63,2.1,4.31,0,1.19-.37,2.24-1.1,3.15-.74.91-1.6,1.37-2.58,1.37-.91,0-2.07-.46-3.47-1.37-3.22-2.45-6.25-4.22-9.09-5.31-2.84-1.09-6.25-1.63-10.25-1.63-5.4,0-9.6,1.1-12.61,3.31-3.01,2.21-4.52,5.27-4.52,9.2,0,3.36,1.33,5.9,3.99,7.62,2.66,1.72,6.94,3.27,12.82,4.68,6.17,1.4,11.16,2.86,14.98,4.36,3.82,1.51,6.87,3.57,9.14,6.2,2.28,2.63,3.42,6.01,3.42,10.14s-1.17,7.94-3.52,11.19c-2.35,3.26-5.64,5.78-9.88,7.57-4.24,1.79-9.13,2.68-14.66,2.68s-10.39-.74-15.19-2.21Z"/>
  <path class="cls-4" d="M369.02,105.99c.67.67,1,1.59,1,2.79,0,1.4-.54,2.47-1.63,3.21-1.09.74-2.68,1.03-4.78.89l-2.84-.21c-5.68-.42-9.92-2.15-12.72-5.2-2.8-3.05-4.2-7.55-4.2-13.51v-24.7h-6.31c-3.08,0-4.63-1.37-4.63-4.1,0-1.26.4-2.26,1.21-3,.81-.74,1.94-1.1,3.42-1.1h6.31v-10.83c0-1.61.47-2.87,1.42-3.78.95-.91,2.22-1.37,3.84-1.37s2.91.46,3.89,1.37c.98.91,1.47,2.17,1.47,3.78v10.83h10.41c1.47,0,2.61.37,3.42,1.1.8.74,1.21,1.73,1.21,3,0,1.33-.4,2.35-1.21,3.05-.81.7-1.94,1.05-3.42,1.05h-10.41v25.44c0,3.29.68,5.71,2.05,7.25,1.37,1.54,3.45,2.42,6.25,2.63l2.94.21c1.54.14,2.64.54,3.31,1.21Z"/>
  <path class="cls-4" d="M409.64,64.31c0,1.54-.39,2.7-1.16,3.47-.77.77-2.1,1.23-3.99,1.37l-3.15.31c-4.41.42-7.69,1.96-9.83,4.63-2.14,2.66-3.21,5.89-3.21,9.67v24.07c0,1.68-.49,2.94-1.47,3.78-.98.84-2.24,1.26-3.78,1.26s-2.82-.42-3.84-1.26c-1.02-.84-1.52-2.1-1.52-3.78v-42.78c0-1.61.51-2.85,1.52-3.73,1.02-.88,2.29-1.31,3.84-1.31,1.4,0,2.58.44,3.52,1.31.95.88,1.42,2.09,1.42,3.63v5.04c1.4-3.08,3.43-5.43,6.1-7.04,2.66-1.61,5.68-2.56,9.04-2.84l1.47-.11c3.36-.21,5.05,1.23,5.05,4.31Z"/>
  <path class="cls-4" d="M457.68,100.57c.63.77.95,1.75.95,2.94,0,2.03-1.26,3.75-3.78,5.15-2.45,1.4-5.13,2.49-8.04,3.26-2.91.77-5.69,1.16-8.36,1.16-8.13,0-14.54-2.36-19.23-7.09-4.69-4.73-7.04-11.19-7.04-19.39,0-5.26,1.03-9.91,3.1-13.98,2.07-4.06,4.97-7.22,8.72-9.46,3.75-2.24,8.01-3.36,12.77-3.36,6.87,0,12.3,2.21,16.29,6.62,3.99,4.41,5.99,10.37,5.99,17.87,0,2.8-1.26,4.2-3.78,4.2h-32.48c.7,10.86,5.92,16.29,15.66,16.29,2.59,0,4.84-.35,6.73-1.05,1.89-.7,3.89-1.61,5.99-2.73.21-.14.79-.44,1.73-.89.95-.45,1.73-.68,2.37-.68.98,0,1.79.39,2.42,1.16ZM427.19,71.46c-2.45,2.59-3.93,6.24-4.41,10.93h27.12c-.21-4.76-1.42-8.42-3.63-10.98-2.21-2.56-5.31-3.84-9.3-3.84s-7.32,1.3-9.78,3.89Z"/>
  <path class="cls-4" d="M471.02,108.67c-1.26-.77-2.15-1.58-2.68-2.42-.53-.84-.79-1.79-.79-2.84,0-1.12.32-2.07.95-2.84.63-.77,1.44-1.16,2.42-1.16.91,0,2.35.56,4.31,1.68,2.1,1.12,4.15,2.03,6.15,2.73,2,.7,4.5,1.05,7.52,1.05,3.36,0,5.99-.59,7.88-1.79,1.89-1.19,2.84-2.87,2.84-5.04,0-1.4-.37-2.52-1.1-3.36-.74-.84-2.01-1.59-3.84-2.26-1.82-.66-4.52-1.38-8.09-2.15-6.17-1.33-10.6-3.14-13.3-5.41-2.7-2.28-4.05-5.38-4.05-9.3,0-3.01.88-5.73,2.63-8.15,1.75-2.42,4.17-4.29,7.25-5.62,3.08-1.33,6.59-2,10.51-2,2.8,0,5.53.37,8.2,1.1,2.66.74,5.01,1.8,7.04,3.21,2.31,1.54,3.47,3.33,3.47,5.36,0,1.12-.33,2.07-1,2.84-.67.77-1.46,1.16-2.36,1.16-.63,0-1.26-.14-1.89-.42-.63-.28-1.47-.74-2.52-1.37-1.89-1.12-3.66-2-5.31-2.63-1.65-.63-3.7-.95-6.15-.95-2.94,0-5.31.63-7.09,1.89-1.79,1.26-2.68,2.98-2.68,5.15,0,1.96.82,3.49,2.47,4.57,1.65,1.09,4.75,2.12,9.3,3.1,4.69.98,8.37,2.1,11.04,3.36,2.66,1.26,4.57,2.82,5.73,4.68,1.16,1.86,1.73,4.22,1.73,7.09,0,4.56-1.91,8.22-5.73,10.98-3.82,2.77-8.92,4.15-15.29,4.15-7.15,0-13-1.47-17.55-4.41Z"/>
  <path class="cls-4" d="M521.69,108.67c-1.26-.77-2.15-1.58-2.68-2.42-.53-.84-.79-1.79-.79-2.84,0-1.12.32-2.07.95-2.84.63-.77,1.44-1.16,2.42-1.16.91,0,2.35.56,4.31,1.68,2.1,1.12,4.15,2.03,6.15,2.73,2,.7,4.5,1.05,7.52,1.05,3.36,0,5.99-.59,7.88-1.79,1.89-1.19,2.84-2.87,2.84-5.04,0-1.4-.37-2.52-1.1-3.36-.74-.84-2.01-1.59-3.84-2.26-1.82-.66-4.52-1.38-8.09-2.15-6.17-1.33-10.6-3.14-13.3-5.41-2.7-2.28-4.05-5.38-4.05-9.3,0-3.01.88-5.73,2.63-8.15,1.75-2.42,4.17-4.29,7.25-5.62,3.08-1.33,6.59-2,10.51-2,2.8,0,5.53.37,8.2,1.1,2.66.74,5.01,1.8,7.04,3.21,2.31,1.54,3.47,3.33,3.47,5.36,0,1.12-.33,2.07-1,2.84-.67.77-1.46,1.16-2.36,1.16-.63,0-1.26-.14-1.89-.42-.63-.28-1.47-.74-2.52-1.37-1.89-1.12-3.66-2-5.31-2.63-1.65-.63-3.7-.95-6.15-.95-2.94,0-5.31.63-7.09,1.89-1.79,1.26-2.68,2.98-2.68,5.15,0,1.96.82,3.49,2.47,4.57,1.65,1.09,4.75,2.12,9.3,3.1,4.69.98,8.37,2.1,11.04,3.36,2.66,1.26,4.57,2.82,5.73,4.68,1.16,1.86,1.73,4.22,1.73,7.09,0,4.56-1.91,8.22-5.73,10.98-3.82,2.77-8.92,4.15-15.29,4.15-7.15,0-13-1.47-17.55-4.41Z"/>
  <path class="cls-4" d="M666.94,108.14c0,1.33-.54,2.45-1.63,3.36-1.09.91-2.3,1.37-3.63,1.37-.91,0-1.77-.26-2.58-.79-.81-.52-1.42-1.28-1.84-2.26l-6.94-15.77h-38.47l-6.94,15.77c-.42.98-1.05,1.73-1.89,2.26-.84.53-1.72.79-2.63.79-1.4,0-2.65-.46-3.73-1.37-1.09-.91-1.63-2.03-1.63-3.36,0-.56.17-1.26.52-2.1l29.64-64.85c.49-1.12,1.28-2,2.36-2.63s2.22-.95,3.42-.95,2.33.32,3.41.95c1.09.63,1.87,1.51,2.36,2.63l29.64,64.85c.35.84.52,1.54.52,2.1ZM615.76,85.44h30.8l-15.45-34.79-15.34,34.79Z"/>
  <path class="cls-4" d="M708.88,64.31c0,1.54-.39,2.7-1.16,3.47-.77.77-2.1,1.23-3.99,1.37l-3.15.31c-4.41.42-7.69,1.96-9.83,4.63-2.14,2.66-3.21,5.89-3.21,9.67v24.07c0,1.68-.49,2.94-1.47,3.78-.98.84-2.24,1.26-3.78,1.26s-2.82-.42-3.84-1.26c-1.02-.84-1.52-2.1-1.52-3.78v-42.78c0-1.61.51-2.85,1.52-3.73,1.02-.88,2.3-1.31,3.84-1.31,1.4,0,2.58.44,3.52,1.31.95.88,1.42,2.09,1.42,3.63v5.04c1.4-3.08,3.43-5.43,6.1-7.04,2.66-1.61,5.67-2.56,9.04-2.84l1.47-.11c3.36-.21,5.05,1.23,5.05,4.31Z"/>
  <path class="cls-4" d="M723.23,109.82c-3.75-2.17-6.66-5.26-8.73-9.25-2.07-3.99-3.1-8.62-3.1-13.87s1.07-10.02,3.21-14.09c2.14-4.06,5.13-7.22,8.99-9.46,3.85-2.24,8.27-3.36,13.24-3.36,2.66,0,5.34.39,8.04,1.16,2.7.77,5.1,1.82,7.2,3.15,2.24,1.54,3.36,3.33,3.36,5.36,0,1.19-.31,2.19-.95,3-.63.81-1.44,1.21-2.42,1.21-.63,0-1.26-.16-1.89-.47-.63-.31-1.44-.79-2.42-1.42-1.75-1.12-3.38-1.98-4.89-2.58-1.51-.59-3.31-.89-5.41-.89-4.77,0-8.46,1.61-11.09,4.84-2.63,3.22-3.94,7.71-3.94,13.45s1.3,10.18,3.89,13.3c2.59,3.12,6.27,4.68,11.04,4.68,2.1,0,3.96-.31,5.57-.95,1.61-.63,3.26-1.47,4.94-2.52.77-.49,1.54-.91,2.31-1.26.77-.35,1.47-.53,2.1-.53.98,0,1.79.4,2.42,1.21.63.81.95,1.81.95,3,0,.98-.26,1.88-.79,2.68-.52.81-1.42,1.63-2.68,2.47-2.1,1.4-4.55,2.49-7.36,3.26-2.8.77-5.64,1.16-8.51,1.16-4.98,0-9.34-1.09-13.09-3.26Z"/>
  <path class="cls-4" d="M811.15,80.5v27.33c0,1.54-.49,2.77-1.47,3.68-.98.91-2.28,1.37-3.89,1.37s-2.89-.46-3.84-1.37c-.95-.91-1.42-2.14-1.42-3.68v-27.22c0-4.2-.86-7.29-2.58-9.25s-4.4-2.94-8.04-2.94c-4.28,0-7.71,1.33-10.3,3.99-2.59,2.67-3.89,6.24-3.89,10.72v24.7c0,1.54-.47,2.77-1.42,3.68s-2.23,1.37-3.84,1.37-2.91-.46-3.89-1.37c-.98-.91-1.47-2.14-1.47-3.68V42.76c0-1.54.51-2.77,1.52-3.68,1.02-.91,2.33-1.37,3.94-1.37s2.79.44,3.73,1.31c.95.88,1.42,2.05,1.42,3.52v26.28c1.75-2.94,4.1-5.19,7.04-6.73,2.94-1.54,6.31-2.31,10.09-2.31,12.19,0,18.29,6.9,18.29,20.71Z"/>
  <path class="cls-4" d="M826.18,48.02c-1.19-1.12-1.79-2.59-1.79-4.41s.6-3.27,1.79-4.36c1.19-1.09,2.8-1.63,4.84-1.63s3.56.54,4.78,1.63c1.22,1.09,1.84,2.54,1.84,4.36s-.6,3.3-1.79,4.41c-1.19,1.12-2.8,1.68-4.84,1.68s-3.64-.56-4.84-1.68ZM827.18,111.61c-1.02-.84-1.52-2.1-1.52-3.78v-42.67c0-1.68.51-2.96,1.52-3.84,1.02-.88,2.3-1.31,3.84-1.31s2.8.44,3.78,1.31c.98.88,1.47,2.15,1.47,3.84v42.67c0,1.68-.49,2.94-1.47,3.78-.98.84-2.24,1.26-3.78,1.26s-2.82-.42-3.84-1.26Z"/>
  <path class="cls-4" d="M879.52,105.99c.66.67,1,1.59,1,2.79,0,1.4-.54,2.47-1.63,3.21-1.09.74-2.68,1.03-4.78.89l-2.84-.21c-5.68-.42-9.92-2.15-12.72-5.2-2.8-3.05-4.2-7.55-4.2-13.51v-24.7h-6.31c-3.08,0-4.62-1.37-4.62-4.1,0-1.26.4-2.26,1.21-3,.8-.74,1.94-1.1,3.41-1.1h6.31v-10.83c0-1.61.47-2.87,1.42-3.78.95-.91,2.22-1.37,3.84-1.37s2.91.46,3.89,1.37c.98.91,1.47,2.17,1.47,3.78v10.83h10.4c1.47,0,2.61.37,3.42,1.1.81.74,1.21,1.73,1.21,3,0,1.33-.4,2.35-1.21,3.05-.81.7-1.94,1.05-3.42,1.05h-10.4v25.44c0,3.29.68,5.71,2.05,7.25,1.37,1.54,3.45,2.42,6.25,2.63l2.94.21c1.54.14,2.64.54,3.31,1.21Z"/>
  <path class="cls-4" d="M930.76,100.57c.63.77.95,1.75.95,2.94,0,2.03-1.26,3.75-3.78,5.15-2.45,1.4-5.13,2.49-8.04,3.26-2.91.77-5.69,1.16-8.36,1.16-8.13,0-14.54-2.36-19.23-7.09-4.7-4.73-7.04-11.19-7.04-19.39,0-5.26,1.03-9.91,3.1-13.98,2.07-4.06,4.98-7.22,8.73-9.46,3.75-2.24,8-3.36,12.77-3.36,6.87,0,12.3,2.21,16.29,6.62,3.99,4.41,5.99,10.37,5.99,17.87,0,2.8-1.26,4.2-3.78,4.2h-32.48c.7,10.86,5.92,16.29,15.66,16.29,2.59,0,4.84-.35,6.73-1.05,1.89-.7,3.89-1.61,5.99-2.73.21-.14.79-.44,1.74-.89.95-.45,1.73-.68,2.36-.68.98,0,1.79.39,2.42,1.16ZM900.28,71.46c-2.45,2.59-3.93,6.24-4.41,10.93h27.12c-.21-4.76-1.42-8.42-3.63-10.98-2.21-2.56-5.31-3.84-9.3-3.84s-7.32,1.3-9.78,3.89Z"/>
  <path class="cls-4" d="M952.68,109.82c-3.75-2.17-6.66-5.26-8.73-9.25-2.07-3.99-3.1-8.62-3.1-13.87s1.07-10.02,3.21-14.09c2.14-4.06,5.13-7.22,8.99-9.46,3.85-2.24,8.27-3.36,13.24-3.36,2.66,0,5.34.39,8.04,1.16,2.7.77,5.1,1.82,7.2,3.15,2.24,1.54,3.36,3.33,3.36,5.36,0,1.19-.31,2.19-.95,3-.63.81-1.44,1.21-2.42,1.21-.63,0-1.26-.16-1.89-.47-.63-.31-1.44-.79-2.42-1.42-1.75-1.12-3.38-1.98-4.89-2.58-1.51-.59-3.31-.89-5.41-.89-4.77,0-8.46,1.61-11.09,4.84-2.63,3.22-3.94,7.71-3.94,13.45s1.3,10.18,3.89,13.3c2.59,3.12,6.27,4.68,11.04,4.68,2.1,0,3.96-.31,5.57-.95,1.61-.63,3.26-1.47,4.94-2.52.77-.49,1.54-.91,2.31-1.26.77-.35,1.47-.53,2.1-.53.98,0,1.79.4,2.42,1.21.63.81.95,1.81.95,3,0,.98-.26,1.88-.79,2.68s-1.42,1.63-2.68,2.47c-2.1,1.4-4.55,2.49-7.36,3.26-2.8.77-5.64,1.16-8.51,1.16-4.98,0-9.34-1.09-13.09-3.26Z"/>
  <path class="cls-4" d="M1023.2,105.99c.66.67,1,1.59,1,2.79,0,1.4-.54,2.47-1.63,3.21-1.09.74-2.68,1.03-4.78.89l-2.84-.21c-5.68-.42-9.92-2.15-12.72-5.2-2.8-3.05-4.2-7.55-4.2-13.51v-24.7h-6.31c-3.08,0-4.62-1.37-4.62-4.1,0-1.26.4-2.26,1.21-3,.8-.74,1.94-1.1,3.41-1.1h6.31v-10.83c0-1.61.47-2.87,1.42-3.78.95-.91,2.22-1.37,3.84-1.37s2.91.46,3.89,1.37c.98.91,1.47,2.17,1.47,3.78v10.83h10.4c1.47,0,2.61.37,3.42,1.1.81.74,1.21,1.73,1.21,3,0,1.33-.4,2.35-1.21,3.05-.81.7-1.94,1.05-3.42,1.05h-10.4v25.44c0,3.29.68,5.71,2.05,7.25,1.37,1.54,3.45,2.42,6.25,2.63l2.94.21c1.54.14,2.64.54,3.31,1.21Z"/>
  <path class="cls-4" d="M1075.44,61.37c.95.91,1.42,2.17,1.42,3.78v42.78c0,1.47-.49,2.66-1.47,3.57-.98.91-2.28,1.37-3.89,1.37-1.47,0-2.66-.44-3.57-1.31s-1.37-2.05-1.37-3.52v-3.99c-1.61,2.94-3.84,5.19-6.67,6.73-2.84,1.54-6.01,2.31-9.51,2.31-12.47,0-18.71-6.87-18.71-20.6v-27.33c0-1.61.47-2.87,1.42-3.78.95-.91,2.26-1.37,3.94-1.37s2.89.46,3.84,1.37c.95.91,1.42,2.17,1.42,3.78v27.22c0,4.14.84,7.18,2.52,9.14,1.68,1.96,4.27,2.94,7.78,2.94,4.13,0,7.45-1.33,9.93-3.99,2.49-2.66,3.73-6.2,3.73-10.62v-24.7c0-1.54.49-2.79,1.47-3.73.98-.95,2.28-1.42,3.89-1.42s2.89.46,3.84,1.37Z"/>
  <path class="cls-4" d="M1123.63,64.31c0,1.54-.39,2.7-1.16,3.47-.77.77-2.1,1.23-3.99,1.37l-3.15.31c-4.41.42-7.69,1.96-9.83,4.63-2.14,2.66-3.21,5.89-3.21,9.67v24.07c0,1.68-.49,2.94-1.47,3.78-.98.84-2.24,1.26-3.78,1.26s-2.82-.42-3.84-1.26c-1.02-.84-1.52-2.1-1.52-3.78v-42.78c0-1.61.51-2.85,1.52-3.73,1.02-.88,2.3-1.31,3.84-1.31,1.4,0,2.58.44,3.52,1.31.95.88,1.42,2.09,1.42,3.63v5.04c1.4-3.08,3.43-5.43,6.1-7.04,2.66-1.61,5.67-2.56,9.04-2.84l1.47-.11c3.36-.21,5.05,1.23,5.05,4.31Z"/>
  <path class="cls-4" d="M1171.67,100.57c.63.77.95,1.75.95,2.94,0,2.03-1.26,3.75-3.78,5.15-2.45,1.4-5.13,2.49-8.04,3.26-2.91.77-5.69,1.16-8.36,1.16-8.13,0-14.54-2.36-19.23-7.09-4.7-4.73-7.04-11.19-7.04-19.39,0-5.26,1.03-9.91,3.1-13.98,2.07-4.06,4.98-7.22,8.73-9.46,3.75-2.24,8-3.36,12.77-3.36,6.87,0,12.3,2.21,16.29,6.62,3.99,4.41,5.99,10.37,5.99,17.87,0,2.8-1.26,4.2-3.78,4.2h-32.48c.7,10.86,5.92,16.29,15.66,16.29,2.59,0,4.84-.35,6.73-1.05,1.89-.7,3.89-1.61,5.99-2.73.21-.14.79-.44,1.74-.89.95-.45,1.73-.68,2.36-.68.98,0,1.79.39,2.42,1.16ZM1141.19,71.46c-2.45,2.59-3.93,6.24-4.41,10.93h27.12c-.21-4.76-1.42-8.42-3.63-10.98-2.21-2.56-5.31-3.84-9.3-3.84s-7.32,1.3-9.78,3.89Z"/>
  <path class="cls-4" d="M337.75,223.48c0,1.19-.46,2.23-1.37,3.1-.91.88-1.96,1.31-3.15,1.31s-2.24-.46-3.15-1.37l-9.25-9.35c-3.22,3.43-6.87,6.06-10.93,7.88-4.06,1.82-8.34,2.73-12.82,2.73s-8.9-.8-12.61-2.42c-3.71-1.61-6.61-3.9-8.67-6.88-2.07-2.98-3.1-6.43-3.1-10.35,0-4.55,1.37-8.62,4.1-12.19,2.73-3.57,6.94-6.97,12.61-10.2-2.87-3.08-5.01-5.94-6.41-8.57-1.4-2.63-2.1-5.38-2.1-8.25,0-5.11,1.79-9.18,5.36-12.19,3.57-3.01,8.16-4.52,13.77-4.52s9.57,1.39,12.72,4.15c3.15,2.77,4.73,6.54,4.73,11.3,0,3.85-1.14,7.27-3.42,10.25-2.28,2.98-5.9,5.98-10.88,8.99l16.5,16.71c2.24-4.63,3.61-10.2,4.1-16.71.07-1.47.58-2.61,1.52-3.42.95-.8,2.01-1.21,3.21-1.21,1.26,0,2.33.44,3.21,1.31.87.88,1.24,2.09,1.1,3.63-.63,8.69-2.87,16.29-6.73,22.81l10.3,10.41c.91.91,1.37,1.93,1.37,3.05ZM306.9,217.38c2.98-1.4,5.62-3.47,7.94-6.2l-19.66-19.66c-4.35,2.59-7.45,5.13-9.3,7.62-1.86,2.49-2.79,5.31-2.79,8.46,0,3.71,1.31,6.62,3.94,8.73,2.63,2.1,6.15,3.15,10.56,3.15,3.22,0,6.32-.7,9.3-2.1ZM293.34,162.36c-1.72,1.65-2.58,3.84-2.58,6.57,0,1.96.53,3.84,1.58,5.62,1.05,1.79,2.77,3.98,5.15,6.57,4.06-2.52,6.92-4.75,8.57-6.67,1.65-1.93,2.47-4.05,2.47-6.36,0-2.45-.77-4.43-2.31-5.94-1.54-1.51-3.57-2.26-6.1-2.26-2.8,0-5.06.82-6.78,2.47Z"/>
  <path class="cls-4" d="M433.5,223.27c0,1.26-.51,2.33-1.52,3.21-1.02.87-2.19,1.31-3.52,1.31-1.96,0-3.54-.87-4.73-2.63l-14.08-21.86c-1.61-2.52-3.33-4.29-5.15-5.31-1.82-1.02-4.2-1.53-7.15-1.53h-11.88v25.65c0,1.68-.47,3.01-1.42,3.99-.95.98-2.26,1.47-3.94,1.47s-2.91-.49-3.89-1.47c-.98-.98-1.47-2.31-1.47-3.99v-63.91c0-1.61.47-2.89,1.42-3.84.95-.95,2.26-1.42,3.94-1.42h26.17c8.2,0,14.45,1.82,18.76,5.46,4.31,3.64,6.46,8.97,6.46,15.98,0,5.82-1.65,10.53-4.94,14.14-3.29,3.61-7.99,5.9-14.08,6.89,1.82.49,3.47,1.37,4.94,2.63,1.47,1.26,2.91,3.02,4.31,5.26l10.83,17.03c.63.91.95,1.89.95,2.94ZM405.01,187.74c5.47,0,9.51-1.07,12.14-3.21,2.63-2.14,3.94-5.45,3.94-9.93s-1.3-7.76-3.89-9.83c-2.59-2.07-6.66-3.1-12.19-3.1h-19.66v26.07h19.66Z"/>
  <path class="cls-4" d="M506.71,153.95c.95,1.02,1.42,2.33,1.42,3.94v64.22c0,1.61-.49,2.93-1.47,3.94-.98,1.01-2.24,1.52-3.78,1.52-1.82,0-3.22-.7-4.2-2.1l-41.2-54.34v50.98c0,1.61-.47,2.93-1.42,3.94-.95,1.01-2.19,1.52-3.73,1.52s-2.77-.49-3.68-1.47c-.91-.98-1.37-2.31-1.37-3.99v-64.22c0-1.61.49-2.92,1.47-3.94.98-1.02,2.24-1.53,3.78-1.53,1.82,0,3.22.7,4.2,2.1l41.2,54.45v-51.08c0-1.61.45-2.92,1.37-3.94.91-1.02,2.14-1.53,3.68-1.53s2.79.51,3.73,1.53Z"/>
  <path class="cls-4" d="M591.26,222.85c0,1.33-.54,2.45-1.63,3.36-1.09.91-2.3,1.37-3.63,1.37-.91,0-1.77-.26-2.58-.79-.81-.52-1.42-1.28-1.84-2.26l-6.94-15.77h-38.47l-6.94,15.77c-.42.98-1.05,1.73-1.89,2.26-.84.53-1.72.79-2.63.79-1.4,0-2.65-.46-3.73-1.37-1.09-.91-1.63-2.03-1.63-3.36,0-.56.17-1.26.52-2.1l29.64-64.85c.49-1.12,1.28-2,2.36-2.63,1.09-.63,2.22-.95,3.42-.95s2.33.31,3.42.95c1.09.63,1.87,1.51,2.36,2.63l29.64,64.85c.35.84.53,1.54.53,2.1ZM540.08,200.14h30.8l-15.45-34.79-15.35,34.79Z"/>
  <path class="cls-4" d="M683.81,195.31c2.35,3.08,3.52,6.94,3.52,11.56,0,6.38-2.19,11.34-6.57,14.87-4.38,3.54-10.49,5.31-18.34,5.31h-26.8c-1.68,0-3-.47-3.94-1.42-.95-.95-1.42-2.22-1.42-3.84v-63.59c0-1.61.47-2.89,1.42-3.84s2.26-1.42,3.94-1.42h25.65c7.64,0,13.61,1.7,17.92,5.1,4.31,3.4,6.46,8.15,6.46,14.24,0,3.93-1.03,7.32-3.1,10.19-2.07,2.88-4.96,5.01-8.67,6.41,4.27,1.19,7.58,3.33,9.93,6.41ZM640.87,185.01h18.71c10.37,0,15.56-3.92,15.56-11.77,0-3.92-1.28-6.83-3.84-8.72-2.56-1.89-6.46-2.84-11.72-2.84h-18.71v23.33ZM673.14,215.38c2.52-1.96,3.78-5.01,3.78-9.14s-1.28-7.34-3.84-9.41c-2.56-2.07-6.5-3.1-11.83-3.1h-20.39v24.6h20.39c5.4,0,9.35-.98,11.88-2.94Z"/>
  <path class="cls-4" d="M700.79,162.72c-1.19-1.12-1.79-2.59-1.79-4.41s.6-3.27,1.79-4.36,2.8-1.63,4.84-1.63,3.56.54,4.78,1.63c1.22,1.09,1.84,2.54,1.84,4.36s-.6,3.29-1.79,4.41c-1.19,1.12-2.8,1.68-4.84,1.68s-3.64-.56-4.84-1.68ZM701.78,226.32c-1.02-.84-1.52-2.1-1.52-3.78v-42.67c0-1.68.51-2.96,1.52-3.84,1.02-.87,2.3-1.31,3.84-1.31s2.8.44,3.78,1.31c.98.88,1.47,2.15,1.47,3.84v42.67c0,1.68-.49,2.94-1.47,3.78-.98.84-2.24,1.26-3.78,1.26s-2.82-.42-3.84-1.26Z"/>
  <path class="cls-4" d="M734.68,224.53c-3.82-2.17-6.76-5.27-8.83-9.3-2.07-4.03-3.1-8.71-3.1-14.03s1.03-10.11,3.1-14.14c2.07-4.03,5.01-7.13,8.83-9.3,3.82-2.17,8.25-3.26,13.3-3.26s9.48,1.09,13.3,3.26c3.82,2.17,6.76,5.27,8.83,9.3,2.07,4.03,3.1,8.74,3.1,14.14s-1.04,10-3.1,14.03c-2.07,4.03-5.01,7.13-8.83,9.3-3.82,2.17-8.25,3.26-13.3,3.26s-9.48-1.09-13.3-3.26ZM758.75,214.75c2.49-3.08,3.73-7.6,3.73-13.56s-1.26-10.39-3.78-13.51c-2.52-3.12-6.1-4.68-10.72-4.68s-8.2,1.56-10.72,4.68c-2.52,3.12-3.78,7.62-3.78,13.51s1.24,10.47,3.73,13.56c2.49,3.08,6.08,4.62,10.77,4.62s8.29-1.54,10.77-4.62Z"/>
  <path class="cls-4" d="M786.5,226.32c-1.02-.84-1.52-2.1-1.52-3.78v-64.96c0-1.68.51-2.96,1.52-3.84,1.02-.88,2.3-1.31,3.84-1.31s2.8.44,3.78,1.31c.98.88,1.47,2.15,1.47,3.84v64.96c0,1.68-.49,2.94-1.47,3.78-.98.84-2.24,1.26-3.78,1.26s-2.82-.42-3.84-1.26Z"/>
  <path class="cls-4" d="M819.4,224.53c-3.82-2.17-6.76-5.27-8.83-9.3-2.07-4.03-3.1-8.71-3.1-14.03s1.03-10.11,3.1-14.14c2.07-4.03,5.01-7.13,8.83-9.3,3.82-2.17,8.25-3.26,13.3-3.26s9.48,1.09,13.3,3.26c3.82,2.17,6.76,5.27,8.83,9.3,2.07,4.03,3.1,8.74,3.1,14.14s-1.04,10-3.1,14.03c-2.07,4.03-5.01,7.13-8.83,9.3-3.82,2.17-8.25,3.26-13.3,3.26s-9.48-1.09-13.3-3.26ZM843.47,214.75c2.49-3.08,3.73-7.6,3.73-13.56s-1.26-10.39-3.78-13.51c-2.52-3.12-6.1-4.68-10.72-4.68s-8.2,1.56-10.72,4.68c-2.52,3.12-3.78,7.62-3.78,13.51s1.24,10.47,3.73,13.56c2.49,3.08,6.08,4.62,10.77,4.62s8.29-1.54,10.77-4.62Z"/>
  <path class="cls-4" d="M915.99,176.12c.95.95,1.42,2.19,1.42,3.73v43.09c0,7.85-2.09,13.77-6.25,17.76-4.17,3.99-10.32,5.99-18.45,5.99-7.57,0-13.88-1.44-18.92-4.31-2.59-1.47-3.89-3.22-3.89-5.26,0-1.19.33-2.17,1-2.94.66-.77,1.49-1.16,2.47-1.16.91,0,2.35.52,4.31,1.58,2.52,1.19,4.87,2.12,7.04,2.79,2.17.66,4.76,1,7.78,1,9.67,0,14.5-4.87,14.5-14.61v-8.09c-1.47,3.08-3.71,5.48-6.73,7.2-3.01,1.72-6.52,2.58-10.51,2.58-4.48,0-8.48-1.05-11.98-3.15-3.51-2.1-6.22-5.08-8.15-8.93-1.93-3.85-2.89-8.3-2.89-13.35s.98-9.49,2.94-13.35c1.96-3.85,4.68-6.85,8.15-8.99,3.47-2.14,7.45-3.21,11.93-3.21,3.92,0,7.38.84,10.35,2.52,2.98,1.68,5.24,4.06,6.78,7.15v-4.41c0-1.54.47-2.77,1.42-3.68.95-.91,2.23-1.37,3.84-1.37s2.89.47,3.84,1.42ZM903.01,212.55c2.59-3.01,3.89-7.18,3.89-12.51s-1.28-9.41-3.84-12.45c-2.56-3.05-6.15-4.57-10.77-4.57s-8.25,1.51-10.88,4.52c-2.63,3.01-3.94,7.18-3.94,12.51s1.33,9.5,3.99,12.51c2.66,3.01,6.27,4.52,10.83,4.52s8.13-1.51,10.72-4.52Z"/>
  <path class="cls-4" d="M970.54,175.55c.8-.49,1.66-.74,2.58-.74,1.33,0,2.5.46,3.52,1.37,1.02.91,1.53,2,1.53,3.26,0,.7-.14,1.37-.42,2l-29.22,62.01c-.42.98-1.03,1.73-1.84,2.26-.81.53-1.67.79-2.58.79-1.26,0-2.4-.42-3.42-1.26-1.02-.84-1.53-1.89-1.53-3.15,0-.56.17-1.26.53-2.1l7.25-15.45-20.29-43.09c-.28-.56-.42-1.19-.42-1.89,0-1.33.56-2.45,1.68-3.36,1.12-.91,2.38-1.37,3.78-1.37,2.1,0,3.61.98,4.52,2.94l16.29,36.16,16.19-36.05c.42-1.05,1.03-1.82,1.84-2.31Z"/>
  <path class="cls-4" d="M1017.31,225.68c-.95-.91-1.42-2.14-1.42-3.68v-64.12c0-1.61.49-2.92,1.47-3.94s2.28-1.53,3.89-1.53,3.01.49,3.99,1.47c.98.98,1.47,2.31,1.47,3.99v60.12h31.95c1.61,0,2.85.39,3.73,1.16.87.77,1.31,1.89,1.31,3.36s-.44,2.59-1.31,3.36c-.88.77-2.12,1.16-3.73,1.16h-37.52c-1.61,0-2.89-.45-3.84-1.37Z"/>
  <path class="cls-4" d="M1108.86,179.65c3.33,3.43,4.99,8.65,4.99,15.66v27.22c0,1.61-.46,2.86-1.37,3.73-.91.87-2.17,1.31-3.78,1.31s-2.77-.46-3.68-1.37c-.91-.91-1.37-2.14-1.37-3.68v-3.89c-1.33,2.94-3.31,5.2-5.94,6.78-2.63,1.58-5.69,2.36-9.2,2.36s-6.45-.68-9.25-2.05c-2.8-1.37-4.99-3.27-6.57-5.73-1.58-2.45-2.36-5.18-2.36-8.2,0-3.71.96-6.64,2.89-8.78,1.93-2.14,5.11-3.66,9.56-4.57,4.45-.91,10.56-1.37,18.34-1.37h2.42v-3.05c0-3.92-.81-6.76-2.42-8.51-1.61-1.75-4.2-2.63-7.78-2.63-2.45,0-4.77.32-6.94.95-2.17.63-4.55,1.54-7.15,2.73-1.89,1.05-3.22,1.58-3.99,1.58-1.05,0-1.91-.38-2.58-1.16-.67-.77-1-1.75-1-2.94,0-1.05.3-1.98.89-2.79.59-.81,1.56-1.59,2.89-2.37,2.45-1.33,5.32-2.4,8.62-3.21,3.29-.8,6.48-1.21,9.56-1.21,6.8,0,11.86,1.72,15.19,5.15ZM1099.88,215.96c2.45-2.63,3.68-6.01,3.68-10.14v-2.73h-1.89c-5.47,0-9.67.25-12.61.74-2.94.49-5.04,1.31-6.31,2.47s-1.89,2.82-1.89,4.99c0,2.52.91,4.59,2.73,6.2,1.82,1.61,4.1,2.42,6.83,2.42,3.85,0,7.01-1.31,9.46-3.94Z"/>
  <path class="cls-4" d="M1167.77,177.75c3.43,2.17,6.11,5.26,8.04,9.25,1.93,3.99,2.89,8.65,2.89,13.98s-.96,9.92-2.89,13.98c-1.93,4.06-4.63,7.22-8.09,9.46-3.47,2.24-7.41,3.36-11.83,3.36-3.85,0-7.25-.82-10.2-2.47-2.94-1.65-5.19-4.01-6.73-7.1v4.2c0,1.54-.47,2.79-1.42,3.73-.95.95-2.23,1.42-3.84,1.42s-2.91-.47-3.89-1.42c-.98-.95-1.47-2.19-1.47-3.73v-64.96c0-1.54.51-2.77,1.52-3.68,1.02-.91,2.33-1.37,3.94-1.37s2.79.44,3.73,1.31,1.42,2.05,1.42,3.52v26.91c1.54-3.08,3.78-5.47,6.73-7.15,2.94-1.68,6.34-2.52,10.2-2.52,4.48,0,8.44,1.09,11.88,3.26ZM1164.04,214.54c2.56-3.22,3.84-7.74,3.84-13.56s-1.26-10.18-3.78-13.3c-2.52-3.12-6.1-4.68-10.72-4.68s-8.18,1.58-10.67,4.73c-2.49,3.15-3.73,7.64-3.73,13.45s1.24,10.3,3.73,13.45c2.49,3.15,6.04,4.73,10.67,4.73s8.11-1.61,10.67-4.83Z"/>
  <path class="cls-2" d="M45.67,220.99c-1.5,0-2.92-.55-4.04-1.56-1.74-1.57-2.41-4.02-1.72-6.26l4.6-14.97h-5.47c-3.33,0-6.04-2.71-6.04-6.04,0-.9.21-1.8.59-2.61l8.8-18.36c1-2.08,3.14-3.43,5.45-3.43h13.93c3.33,0,6.04,2.71,6.04,6.04,0,.9-.21,1.8-.59,2.61l-3.35,7h4.85c3.33,0,6.04,2.71,6.04,6.04,0,1.5-.55,2.94-1.56,4.05l-23.04,25.49c-1.08,1.2-2.57,1.9-4.18,1.98-.1,0-.21,0-.31,0ZM40.77,191.07h8.56c1.13,0,2.2.54,2.87,1.45.67.91.87,2.09.54,3.17l-4.58,14.88,18.09-20.01h-8.06c-1.23,0-2.37-.63-3.02-1.67-.65-1.04-.73-2.34-.2-3.44l5.05-10.54h-11.51l-7.75,16.17ZM68.72,190.55h.02-.02Z"/>
  <path class="cls-2" d="M152.92,236.2h-13.69l-26.09-26.09v-61.55c0-2.19-1.77-3.96-3.96-3.96s-3.96,1.77-3.96,3.96v61.61l-26.03,26.03h-13.69c-2.19,0-3.96,1.77-3.96,3.96s1.77,3.96,3.96,3.96h11.37v11.25c0,2.19,1.77,3.96,3.96,3.96s3.96-1.77,3.96-3.96v-13.57l20.42-20.42v54.61c0,2.19,1.77,3.96,3.96,3.96s3.96-1.77,3.96-3.96v-54.67l20.49,20.49v14.71c0,2.19,1.77,3.96,3.96,3.96s3.96-1.77,3.96-3.96v-12.38h11.37c2.19,0,3.96-1.77,3.96-3.96s-1.77-3.96-3.96-3.96Z"/>
  <path class="cls-3" d="M170.15,204.38c-1.79-1.11-3.23-2.41-4.3-3.81h8.75c1.08,0,1.96-.88,1.96-1.96s-.88-1.96-1.96-1.96h-10.65c-.09-.42-.15-.85-.17-1.27-.04-.85.06-1.71.3-2.57.02,0,.04.01.05.01h10.47c1.08,0,1.96-.88,1.96-1.96s-.88-1.96-1.96-1.96h-8.54c1.04-1.39,2.4-2.76,4.08-4.07.37-.23,9.04-5.66,9.04-15.28,0-1.19-.79-2.16-1.87-2.5-.24-.1-.5-.17-.78-.17h-13.39c-1.08,0-1.96.88-1.96,1.96s.88,1.96,1.96,1.96h10.59c-.18,1.39-.59,2.65-1.18,3.77-.09-.01-.17-.05-.27-.05h-9.14c-1.08,0-1.96.88-1.96,1.96s.88,1.96,1.96,1.96h6.47c-1.27,1.22-2.36,1.93-2.47,2.01-7.5,5.78-8.85,11.45-8.66,15.19.26,5.09,3.5,9.92,8.88,13.25.73.45,1.35.93,1.92,1.42h-6.15c-1.08,0-1.96.88-1.96,1.96s.88,1.96,1.96,1.96h9.14c.07,0,.13-.03.19-.04.79,1.47,1.15,2.82,1.3,3.73h-10.63c-1.08,0-1.96.88-1.96,1.96s.88,1.96,1.96,1.96h13.19s.06.02.1.02h.1c1.42,0,2.6-1.12,2.65-2.55.01-.37.24-9.2-9.03-14.94Z"/>
  <path class="cls-1" d="M215.38,145.48h-13.54v-10.09c0-2.19-1.77-3.96-3.96-3.96s-3.96,1.77-3.96,3.96v10.09h-15.77v-10.09c0-2.19-1.77-3.96-3.96-3.96s-3.96,1.77-3.96,3.96v10.09h-15.77v-10.09c0-2.19-1.77-3.96-3.96-3.96s-3.96,1.77-3.96,3.96v10.09h-17.08v-21.51c5.83-.51,16.54-2.55,24.43-10.44,6.63-6.63,9.78-15.84,9.35-27.35-.07-1.95-1.55-3.55-3.49-3.79-.63-.07-15.4-1.73-26.55,7.99-7.55,6.58-11.5,16.58-11.73,29.72,0,.28.09.53.14.8h-.08v24.58h-8.37v-57.54l26.09-26.09h12.3c1.64,4.58,5.98,7.89,11.12,7.89,6.54,0,11.86-5.32,11.86-11.86s-5.32-11.86-11.86-11.86c-5.14,0-9.48,3.31-11.12,7.89h-9.98v-9.55c4.58-1.64,7.89-5.98,7.89-11.12,0-6.54-5.32-11.86-11.86-11.86s-11.85,5.32-11.85,11.86c0,5.14,3.31,9.48,7.89,11.12v11.87l-20.49,20.49V22.98c4.58-1.64,7.89-5.98,7.89-11.12,0-6.54-5.32-11.86-11.85-11.86s-11.86,5.32-11.86,11.86c0,5.14,3.31,9.48,7.89,11.12v53.7l-20.42-20.42v-11.87c4.58-1.64,7.89-5.98,7.89-11.12,0-6.54-5.32-11.86-11.86-11.86s-11.85,5.32-11.85,11.86c0,5.14,3.31,9.48,7.89,11.12v9.55h-9.98c-1.64-4.58-5.98-7.89-11.12-7.89-6.54,0-11.85,5.32-11.85,11.86s5.32,11.86,11.85,11.86c5.14,0,9.48-3.31,11.12-7.89h12.3l26.03,26.03v57.6h-7.82v-24.58h-.08c.05-.27.15-.52.14-.8-.23-13.14-4.18-23.14-11.73-29.72-11.15-9.71-25.93-8.06-26.55-7.99-1.94.23-3.41,1.84-3.49,3.79-.43,11.52,2.71,20.72,9.35,27.35,7.89,7.89,18.6,9.93,24.43,10.44v21.51h-16.57v-10.09c0-2.19-1.77-3.96-3.96-3.96s-3.96,1.77-3.96,3.96v10.09h-15.77v-10.09c0-2.19-1.77-3.96-3.96-3.96s-3.96,1.77-3.96,3.96v10.09h-15.77v-10.09c0-2.19-1.77-3.96-3.96-3.96s-3.96,1.77-3.96,3.96v10.09H3.96c-2.19,0-3.96,1.77-3.96,3.96s1.77,3.96,3.96,3.96h211.42c2.19,0,3.96-1.77,3.96-3.96s-1.77-3.96-3.96-3.96ZM138.33,96.41c5.62-4.93,12.76-6.02,16.95-6.2-.35,7.44-2.69,13.37-6.98,17.68-5.75,5.78-13.87,7.55-18.69,8.09.83-8.65,3.76-15.22,8.72-19.58ZM162.65,53.17c2.6,0,4.72,2.12,4.72,4.72s-2.12,4.72-4.72,4.72-4.72-2.12-4.72-4.72,2.12-4.72,4.72-4.72ZM132.86,33.26c0-2.6,2.12-4.72,4.72-4.72s4.72,2.12,4.72,4.72-2.12,4.72-4.72,4.72-4.72-2.12-4.72-4.72ZM55.76,62.61c-2.6,0-4.72-2.12-4.72-4.72s2.12-4.72,4.72-4.72,4.72,2.12,4.72,4.72-2.12,4.72-4.72,4.72ZM80.82,37.98c-2.6,0-4.72-2.12-4.72-4.72s2.12-4.72,4.72-4.72,4.72,2.12,4.72,4.72-2.12,4.72-4.72,4.72ZM70.6,107.89c-4.29-4.31-6.63-10.25-6.98-17.68,4.19.18,11.33,1.27,16.95,6.2,4.97,4.35,7.89,10.93,8.72,19.58-4.82-.54-12.94-2.31-18.69-8.09ZM109.17,16.58c-2.6,0-4.72-2.12-4.72-4.72s2.12-4.72,4.72-4.72,4.72,2.12,4.72,4.72-2.12,4.72-4.72,4.72Z"/>
</svg>