<?xml version="1.0" encoding="UTF-8"?>
<svg id="Layer_1" data-name="Layer 1" xmlns="http://www.w3.org/2000/svg" viewBox="0 0 1181.86 400">
  <defs>
    <style>
      .cls-1 {
        fill: #9bc652;
      }

      .cls-2 {
        fill: #a97c50;
      }

      .cls-3 {
        fill: #183a21;
      }
    </style>
  </defs>
  <path class="cls-3" d="M411.52,160.71c-6.86-2.1-12.34-5-16.44-8.71-1.9-1.6-2.85-3.65-2.85-6.16,0-1.8.5-3.33,1.5-4.58,1-1.25,2.2-1.88,3.6-1.88s3.1.65,5.11,1.95c8.91,6.61,19.07,9.91,30.49,9.91,8.01,0,14.17-1.5,18.47-4.5,4.3-3,6.46-7.31,6.46-12.92,0-4.4-2-7.71-6.01-9.91-4-2.2-10.41-4.3-19.22-6.31-8.41-1.8-15.32-3.85-20.72-6.16-5.41-2.3-9.64-5.43-12.69-9.39-3.06-3.95-4.58-8.99-4.58-15.09s1.68-11.54,5.03-16.29c3.35-4.75,8.03-8.46,14.04-11.11,6.01-2.65,12.86-3.98,20.58-3.98,7.11,0,13.67,1,19.67,3,6.01,2.01,11.11,4.96,15.32,8.86,2,1.7,3,3.75,3,6.16,0,1.7-.53,3.21-1.58,4.5-1.05,1.3-2.28,1.95-3.68,1.95-1.3,0-2.95-.65-4.96-1.95-4.61-3.5-8.94-6.03-12.99-7.58-4.06-1.55-8.94-2.33-14.64-2.33-7.71,0-13.72,1.58-18.02,4.73-4.31,3.15-6.46,7.53-6.46,13.14,0,4.81,1.9,8.43,5.71,10.89,3.8,2.45,9.91,4.68,18.32,6.68,8.81,2.01,15.94,4.08,21.4,6.23,5.46,2.15,9.81,5.11,13.07,8.86,3.25,3.75,4.88,8.59,4.88,14.49s-1.68,11.34-5.03,15.99c-3.36,4.66-8.06,8.26-14.12,10.81-6.06,2.55-13.04,3.83-20.95,3.83s-14.84-1.05-21.7-3.15Z"/>
  <path class="cls-3" d="M530.47,153.58c.95.95,1.43,2.28,1.43,3.98,0,2.01-.78,3.53-2.33,4.58-1.55,1.05-3.83,1.47-6.83,1.28l-4.05-.3c-8.11-.6-14.17-3.08-18.17-7.43-4-4.36-6.01-10.79-6.01-19.3v-35.29h-9.01c-4.41,0-6.61-1.95-6.61-5.86,0-1.8.58-3.23,1.73-4.28,1.15-1.05,2.78-1.58,4.88-1.58h9.01v-15.47c0-2.3.68-4.1,2.03-5.41,1.35-1.3,3.18-1.95,5.48-1.95s4.15.65,5.56,1.95c1.4,1.3,2.1,3.1,2.1,5.41v15.47h14.87c2.1,0,3.73.53,4.88,1.58,1.15,1.05,1.73,2.48,1.73,4.28,0,1.9-.58,3.35-1.73,4.35-1.15,1-2.78,1.5-4.88,1.5h-14.87v36.35c0,4.71.98,8.16,2.93,10.36,1.95,2.2,4.93,3.45,8.94,3.75l4.2.3c2.2.2,3.78.78,4.73,1.73Z"/>
  <path class="cls-3" d="M588.51,94.03c0,2.2-.55,3.86-1.65,4.95-1.1,1.1-3,1.76-5.71,1.95l-4.5.45c-6.31.6-10.99,2.8-14.04,6.61-3.06,3.81-4.58,8.41-4.58,13.82v34.39c0,2.4-.7,4.2-2.1,5.41-1.4,1.2-3.21,1.8-5.41,1.8s-4.03-.6-5.48-1.8c-1.45-1.2-2.18-3-2.18-5.41v-61.12c0-2.3.73-4.08,2.18-5.33,1.45-1.25,3.28-1.88,5.48-1.88,2,0,3.68.63,5.03,1.88,1.35,1.25,2.03,2.98,2.03,5.18v7.21c2-4.4,4.9-7.76,8.71-10.06,3.8-2.3,8.11-3.65,12.92-4.06l2.1-.15c4.81-.3,7.21,1.75,7.21,6.16Z"/>
  <path class="cls-3" d="M657.14,145.84c.9,1.1,1.35,2.5,1.35,4.2,0,2.91-1.8,5.36-5.41,7.36-3.51,2.01-7.34,3.56-11.49,4.66-4.16,1.1-8.13,1.65-11.94,1.65-11.61,0-20.78-3.38-27.48-10.14-6.71-6.76-10.06-15.99-10.06-27.71,0-7.51,1.48-14.17,4.43-19.97,2.95-5.81,7.11-10.31,12.46-13.52,5.35-3.2,11.44-4.8,18.25-4.8,9.81,0,17.57,3.15,23.28,9.46,5.71,6.31,8.56,14.82,8.56,25.53,0,4-1.8,6.01-5.41,6.01h-46.41c1,15.52,8.46,23.28,22.38,23.28,3.7,0,6.91-.5,9.61-1.5,2.7-1,5.56-2.3,8.56-3.9.3-.2,1.13-.62,2.48-1.28,1.35-.65,2.48-.97,3.38-.97,1.4,0,2.55.55,3.45,1.65ZM613.59,104.24c-3.51,3.7-5.61,8.91-6.31,15.62h38.75c-.3-6.81-2.03-12.04-5.18-15.69-3.15-3.65-7.58-5.48-13.29-5.48s-10.46,1.86-13.97,5.56Z"/>
  <path class="cls-3" d="M676.22,157.4c-1.8-1.1-3.08-2.25-3.83-3.45-.75-1.2-1.13-2.55-1.13-4.06,0-1.6.45-2.95,1.35-4.06.9-1.1,2.05-1.65,3.45-1.65,1.3,0,3.35.8,6.16,2.4,3,1.6,5.93,2.91,8.79,3.91,2.85,1,6.43,1.5,10.74,1.5,4.81,0,8.56-.85,11.26-2.55,2.7-1.7,4.05-4.1,4.05-7.21,0-2-.53-3.61-1.58-4.81-1.05-1.2-2.88-2.28-5.48-3.23-2.6-.95-6.46-1.98-11.56-3.08-8.81-1.9-15.14-4.48-19-7.73-3.85-3.25-5.78-7.68-5.78-13.29,0-4.3,1.25-8.18,3.75-11.64,2.5-3.45,5.96-6.13,10.36-8.03,4.4-1.9,9.41-2.85,15.02-2.85,4,0,7.91.53,11.71,1.58,3.8,1.05,7.16,2.58,10.06,4.58,3.3,2.2,4.96,4.76,4.96,7.66,0,1.6-.48,2.95-1.43,4.06-.95,1.1-2.08,1.65-3.38,1.65-.9,0-1.8-.2-2.7-.6-.9-.4-2.1-1.05-3.6-1.95-2.7-1.6-5.23-2.85-7.58-3.75-2.35-.9-5.28-1.35-8.79-1.35-4.21,0-7.58.9-10.14,2.7-2.55,1.8-3.83,4.26-3.83,7.36,0,2.8,1.18,4.98,3.53,6.53,2.35,1.55,6.78,3.03,13.29,4.43,6.71,1.4,11.96,3,15.77,4.81,3.8,1.8,6.53,4.03,8.19,6.68,1.65,2.65,2.48,6.03,2.48,10.14,0,6.51-2.73,11.74-8.18,15.69-5.46,3.96-12.74,5.93-21.85,5.93-10.21,0-18.57-2.1-25.08-6.31Z"/>
  <path class="cls-3" d="M748.6,157.4c-1.8-1.1-3.08-2.25-3.83-3.45-.75-1.2-1.13-2.55-1.13-4.06,0-1.6.45-2.95,1.35-4.06.9-1.1,2.05-1.65,3.45-1.65,1.3,0,3.35.8,6.16,2.4,3,1.6,5.93,2.91,8.79,3.91,2.85,1,6.43,1.5,10.74,1.5,4.81,0,8.56-.85,11.26-2.55,2.7-1.7,4.05-4.1,4.05-7.21,0-2-.53-3.61-1.58-4.81-1.05-1.2-2.88-2.28-5.48-3.23-2.6-.95-6.46-1.98-11.56-3.08-8.81-1.9-15.14-4.48-19-7.73-3.85-3.25-5.78-7.68-5.78-13.29,0-4.3,1.25-8.18,3.75-11.64,2.5-3.45,5.96-6.13,10.36-8.03,4.4-1.9,9.41-2.85,15.02-2.85,4,0,7.91.53,11.71,1.58,3.8,1.05,7.16,2.58,10.06,4.58,3.3,2.2,4.96,4.76,4.96,7.66,0,1.6-.48,2.95-1.43,4.06-.95,1.1-2.08,1.65-3.38,1.65-.9,0-1.8-.2-2.7-.6-.9-.4-2.1-1.05-3.6-1.95-2.7-1.6-5.23-2.85-7.58-3.75-2.35-.9-5.28-1.35-8.79-1.35-4.21,0-7.58.9-10.14,2.7-2.55,1.8-3.83,4.26-3.83,7.36,0,2.8,1.18,4.98,3.53,6.53,2.35,1.55,6.78,3.03,13.29,4.43,6.71,1.4,11.96,3,15.77,4.81,3.8,1.8,6.53,4.03,8.19,6.68,1.65,2.65,2.48,6.03,2.48,10.14,0,6.51-2.73,11.74-8.18,15.69-5.46,3.96-12.74,5.93-21.85,5.93-10.21,0-18.57-2.1-25.08-6.31Z"/>
  <path class="cls-3" d="M945.94,157.25c0,1.8-.73,3.33-2.18,4.58-1.45,1.25-3.13,1.88-5.03,1.88-2.8,0-5.06-1.25-6.76-3.75l-20.13-31.24c-2.3-3.6-4.76-6.13-7.36-7.58-2.61-1.45-6-2.18-10.21-2.18h-16.97v36.65c0,2.4-.68,4.31-2.03,5.71-1.35,1.4-3.23,2.1-5.63,2.1s-4.16-.7-5.56-2.1c-1.4-1.4-2.1-3.31-2.1-5.71v-91.31c0-2.3.68-4.13,2.03-5.48,1.35-1.35,3.23-2.03,5.63-2.03h37.4c11.71,0,20.65,2.6,26.81,7.81,6.16,5.21,9.23,12.82,9.23,22.83,0,8.31-2.35,15.05-7.06,20.2-4.71,5.16-11.41,8.44-20.13,9.84,2.6.7,4.95,1.95,7.06,3.75,2.1,1.8,4.15,4.31,6.16,7.51l15.47,24.33c.9,1.3,1.35,2.7,1.35,4.2ZM905.24,106.49c7.81,0,13.59-1.53,17.34-4.58,3.76-3.05,5.63-7.78,5.63-14.19s-1.85-11.09-5.56-14.04c-3.7-2.95-9.51-4.43-17.42-4.43h-28.09v37.24h28.09Z"/>
  <path class="cls-3" d="M1050.54,58.21c1.35,1.45,2.03,3.33,2.03,5.63v91.76c0,2.3-.7,4.18-2.1,5.63-1.4,1.45-3.2,2.18-5.41,2.18-2.6,0-4.61-1-6.01-3l-58.87-77.64v72.84c0,2.3-.68,4.18-2.03,5.63-1.35,1.45-3.13,2.18-5.33,2.18s-3.95-.7-5.25-2.1c-1.3-1.4-1.95-3.31-1.95-5.71V63.84c0-2.3.7-4.18,2.1-5.63,1.4-1.45,3.2-2.18,5.41-2.18,2.6,0,4.61,1,6.01,3l58.87,77.79V63.84c0-2.3.65-4.18,1.95-5.63,1.3-1.45,3.05-2.18,5.25-2.18s3.98.73,5.33,2.18Z"/>
  <path class="cls-3" d="M1171.35,156.65c0,1.9-.78,3.5-2.33,4.81-1.56,1.3-3.28,1.95-5.18,1.95-1.3,0-2.53-.37-3.68-1.13-1.15-.75-2.03-1.83-2.63-3.23l-9.91-22.53h-54.97l-9.91,22.53c-.6,1.4-1.5,2.48-2.7,3.23-1.2.75-2.45,1.13-3.75,1.13-2.01,0-3.78-.65-5.33-1.95-1.56-1.3-2.33-2.9-2.33-4.81,0-.8.25-1.8.75-3l42.35-92.66c.7-1.6,1.83-2.85,3.38-3.75,1.55-.9,3.18-1.35,4.88-1.35s3.33.45,4.88,1.35,2.68,2.15,3.38,3.75l42.35,92.66c.5,1.2.75,2.2.75,3ZM1098.22,124.22h44l-22.08-49.71-21.93,49.71Z"/>
  <path class="cls-3" d="M474.75,281.2c3.35,4.41,5.03,9.91,5.03,16.52,0,9.11-3.13,16.2-9.39,21.25-6.26,5.06-14.99,7.58-26.21,7.58h-38.3c-2.4,0-4.28-.68-5.63-2.03-1.35-1.35-2.03-3.18-2.03-5.48v-90.86c0-2.3.68-4.13,2.03-5.48,1.35-1.35,3.23-2.03,5.63-2.03h36.64c10.91,0,19.45,2.43,25.61,7.28,6.16,4.86,9.24,11.64,9.24,20.35,0,5.61-1.48,10.46-4.43,14.57-2.95,4.11-7.08,7.16-12.39,9.16,6.11,1.7,10.84,4.76,14.19,9.16ZM413.4,266.48h26.73c14.82,0,22.23-5.61,22.23-16.82,0-5.61-1.83-9.76-5.48-12.46-3.66-2.7-9.24-4.06-16.74-4.06h-26.73v33.34ZM459.51,309.88c3.6-2.8,5.41-7.16,5.41-13.07s-1.83-10.49-5.48-13.44c-3.66-2.95-9.29-4.43-16.89-4.43h-29.14v35.14h29.14c7.71,0,13.37-1.4,16.97-4.21Z"/>
  <path class="cls-3" d="M499,234.64c-1.7-1.6-2.55-3.7-2.55-6.31s.85-4.68,2.55-6.23c1.7-1.55,4-2.33,6.91-2.33s5.08.78,6.83,2.33c1.75,1.55,2.63,3.63,2.63,6.23s-.85,4.71-2.55,6.31c-1.7,1.6-4.01,2.4-6.91,2.4s-5.21-.8-6.91-2.4ZM500.43,325.5c-1.45-1.2-2.18-3-2.18-5.41v-60.97c0-2.4.73-4.23,2.18-5.48,1.45-1.25,3.28-1.88,5.48-1.88s4,.63,5.41,1.88c1.4,1.25,2.1,3.08,2.1,5.48v60.97c0,2.4-.7,4.2-2.1,5.41-1.4,1.2-3.21,1.8-5.41,1.8s-4.03-.6-5.48-1.8Z"/>
  <path class="cls-3" d="M547.43,322.95c-5.46-3.1-9.66-7.53-12.61-13.29-2.95-5.75-4.43-12.44-4.43-20.05s1.48-14.44,4.43-20.2c2.95-5.76,7.16-10.19,12.61-13.29,5.46-3.1,11.79-4.66,19-4.66s13.54,1.56,19,4.66c5.46,3.11,9.66,7.54,12.62,13.29,2.95,5.76,4.43,12.49,4.43,20.2s-1.48,14.29-4.43,20.05c-2.95,5.76-7.16,10.19-12.62,13.29-5.46,3.1-11.79,4.65-19,4.65s-13.54-1.55-19-4.65ZM581.82,308.98c3.55-4.41,5.33-10.86,5.33-19.37s-1.8-14.84-5.41-19.3c-3.6-4.45-8.71-6.68-15.32-6.68s-11.71,2.23-15.32,6.68c-3.6,4.46-5.41,10.89-5.41,19.3s1.78,14.97,5.33,19.37c3.55,4.41,8.68,6.61,15.39,6.61s11.84-2.2,15.39-6.61Z"/>
  <path class="cls-3" d="M621.47,325.5c-1.45-1.2-2.18-3-2.18-5.41v-92.81c0-2.4.73-4.23,2.18-5.48,1.45-1.25,3.28-1.88,5.48-1.88s4,.63,5.41,1.88c1.4,1.25,2.1,3.08,2.1,5.48v92.81c0,2.4-.7,4.2-2.1,5.41-1.4,1.2-3.21,1.8-5.41,1.8s-4.03-.6-5.48-1.8Z"/>
  <path class="cls-3" d="M668.48,322.95c-5.46-3.1-9.66-7.53-12.61-13.29-2.95-5.75-4.43-12.44-4.43-20.05s1.48-14.44,4.43-20.2c2.95-5.76,7.16-10.19,12.61-13.29,5.46-3.1,11.79-4.66,19-4.66s13.54,1.56,19,4.66c5.46,3.11,9.66,7.54,12.62,13.29,2.95,5.76,4.43,12.49,4.43,20.2s-1.48,14.29-4.43,20.05c-2.95,5.76-7.16,10.19-12.62,13.29-5.46,3.1-11.79,4.65-19,4.65s-13.54-1.55-19-4.65ZM702.87,308.98c3.55-4.41,5.33-10.86,5.33-19.37s-1.8-14.84-5.41-19.3c-3.6-4.45-8.71-6.68-15.32-6.68s-11.71,2.23-15.32,6.68c-3.6,4.46-5.41,10.89-5.41,19.3s1.78,14.97,5.33,19.37c3.55,4.41,8.68,6.61,15.39,6.61s11.84-2.2,15.39-6.61Z"/>
  <path class="cls-3" d="M806.49,253.79c1.35,1.35,2.03,3.13,2.03,5.33v61.57c0,11.21-2.98,19.67-8.94,25.38-5.96,5.71-14.74,8.56-26.36,8.56-10.81,0-19.82-2.05-27.03-6.16-3.71-2.1-5.56-4.61-5.56-7.51,0-1.7.47-3.1,1.43-4.2.95-1.1,2.13-1.65,3.53-1.65,1.3,0,3.35.75,6.16,2.25,3.6,1.7,6.96,3.03,10.06,3.98,3.1.95,6.81,1.43,11.11,1.43,13.82,0,20.72-6.96,20.72-20.88v-11.56c-2.1,4.41-5.31,7.84-9.61,10.29-4.31,2.45-9.31,3.68-15.02,3.68-6.41,0-12.12-1.5-17.12-4.5-5.01-3-8.89-7.26-11.64-12.76-2.75-5.51-4.13-11.87-4.13-19.08s1.4-13.57,4.2-19.07c2.8-5.5,6.68-9.79,11.64-12.84,4.96-3.05,10.64-4.58,17.05-4.58,5.61,0,10.54,1.2,14.79,3.61,4.25,2.4,7.48,5.81,9.69,10.21v-6.31c0-2.2.68-3.95,2.03-5.25,1.35-1.3,3.18-1.95,5.48-1.95s4.13.68,5.48,2.03ZM787.94,305.83c3.7-4.31,5.56-10.26,5.56-17.87s-1.83-13.44-5.48-17.8c-3.66-4.36-8.79-6.53-15.39-6.53s-11.79,2.15-15.54,6.46c-3.75,4.31-5.63,10.26-5.63,17.87s1.9,13.57,5.71,17.87c3.8,4.31,8.96,6.46,15.47,6.46s11.61-2.15,15.32-6.46Z"/>
  <path class="cls-3" d="M884.43,252.96c1.15-.7,2.38-1.05,3.68-1.05,1.9,0,3.58.65,5.03,1.95,1.45,1.3,2.18,2.85,2.18,4.66,0,1-.2,1.95-.6,2.85l-41.75,88.61c-.6,1.4-1.48,2.48-2.63,3.23-1.15.75-2.38,1.13-3.68,1.13-1.8,0-3.43-.6-4.88-1.8-1.45-1.2-2.18-2.7-2.18-4.5,0-.8.25-1.8.75-3l10.36-22.08-28.99-61.57c-.4-.8-.6-1.7-.6-2.7,0-1.9.8-3.5,2.4-4.81,1.6-1.3,3.4-1.95,5.41-1.95,3,0,5.16,1.4,6.46,4.2l23.28,51.66,23.13-51.51c.6-1.5,1.47-2.6,2.63-3.31Z"/>
  <path class="cls-3" d="M951.26,324.6c-1.35-1.3-2.03-3.05-2.03-5.26v-91.61c0-2.3.7-4.18,2.1-5.63s3.25-2.18,5.56-2.18,4.3.7,5.71,2.1c1.4,1.4,2.1,3.3,2.1,5.71v85.9h45.65c2.3,0,4.08.55,5.33,1.65,1.25,1.1,1.88,2.7,1.88,4.81s-.63,3.7-1.88,4.81c-1.26,1.1-3.03,1.65-5.33,1.65h-53.61c-2.3,0-4.13-.65-5.48-1.95Z"/>
  <path class="cls-3" d="M1082.07,258.82c4.75,4.91,7.13,12.37,7.13,22.38v38.9c0,2.3-.65,4.08-1.95,5.33-1.3,1.25-3.11,1.88-5.41,1.88s-3.96-.65-5.26-1.95c-1.3-1.3-1.95-3.05-1.95-5.25v-5.56c-1.9,4.2-4.73,7.43-8.48,9.69-3.75,2.25-8.14,3.38-13.14,3.38s-9.21-.97-13.22-2.93c-4-1.95-7.13-4.68-9.39-8.19-2.25-3.5-3.38-7.41-3.38-11.71,0-5.31,1.38-9.48,4.13-12.54,2.75-3.05,7.31-5.23,13.67-6.53,6.36-1.3,15.09-1.95,26.21-1.95h3.45v-4.36c0-5.61-1.15-9.66-3.45-12.16-2.31-2.5-6.01-3.75-11.11-3.75-3.51,0-6.81.45-9.91,1.35-3.1.9-6.51,2.2-10.21,3.9-2.7,1.5-4.61,2.25-5.71,2.25-1.5,0-2.73-.55-3.68-1.65-.95-1.1-1.43-2.5-1.43-4.2,0-1.5.42-2.83,1.28-3.98.85-1.15,2.23-2.28,4.13-3.38,3.5-1.9,7.61-3.43,12.32-4.58,4.7-1.15,9.26-1.73,13.67-1.73,9.71,0,16.94,2.46,21.7,7.36ZM1069.23,310.71c3.5-3.75,5.26-8.59,5.26-14.49v-3.9h-2.7c-7.81,0-13.82.35-18.02,1.05-4.2.7-7.21,1.88-9.01,3.53-1.8,1.65-2.7,4.03-2.7,7.13,0,3.6,1.3,6.56,3.91,8.86,2.6,2.3,5.86,3.45,9.76,3.45,5.5,0,10.01-1.88,13.52-5.63Z"/>
  <path class="cls-3" d="M1166.24,256.12c4.91,3.11,8.73,7.51,11.49,13.22,2.75,5.71,4.13,12.37,4.13,19.97s-1.38,14.17-4.13,19.97c-2.75,5.81-6.61,10.31-11.56,13.51-4.96,3.21-10.59,4.81-16.9,4.81-5.51,0-10.36-1.17-14.57-3.53-4.2-2.35-7.41-5.73-9.61-10.14v6.01c0,2.2-.68,3.98-2.03,5.33-1.35,1.35-3.18,2.03-5.48,2.03s-4.15-.67-5.56-2.03c-1.4-1.35-2.1-3.13-2.1-5.33v-92.81c0-2.2.72-3.95,2.18-5.26,1.45-1.3,3.33-1.95,5.63-1.95s3.98.63,5.33,1.88,2.03,2.93,2.03,5.03v38.45c2.2-4.4,5.41-7.81,9.61-10.21,4.2-2.4,9.06-3.61,14.57-3.61,6.41,0,12.06,1.56,16.97,4.66ZM1160.91,308.68c3.65-4.61,5.48-11.06,5.48-19.37s-1.8-14.54-5.41-19c-3.6-4.45-8.71-6.68-15.32-6.68s-11.69,2.25-15.24,6.76c-3.56,4.5-5.33,10.91-5.33,19.22s1.78,14.72,5.33,19.22c3.55,4.5,8.64,6.76,15.24,6.76s11.59-2.3,15.24-6.91Z"/>
  <path class="cls-2" d="M218.49,337.49h-19.56l-37.28-37.28v-87.95c0-3.13-2.54-5.66-5.66-5.66s-5.66,2.54-5.66,5.66v88.04l-37.19,37.19h-19.56c-3.13,0-5.66,2.54-5.66,5.66s2.53,5.66,5.66,5.66h16.24v16.08c0,3.13,2.54,5.66,5.66,5.66s5.66-2.54,5.66-5.66v-19.4l29.18-29.18v78.02c0,3.13,2.53,5.66,5.66,5.66s5.66-2.54,5.66-5.66v-78.11l29.27,29.27v21.01c0,3.13,2.53,5.66,5.66,5.66s5.66-2.54,5.66-5.66v-17.69h16.25c3.13,0,5.66-2.54,5.66-5.66s-2.54-5.66-5.66-5.66Z"/>
  <path class="cls-2" d="M244.47,292.21c-2.56-1.58-4.62-3.44-6.15-5.44h12.5c1.55,0,2.8-1.25,2.8-2.8s-1.25-2.8-2.8-2.8h-15.21c-.13-.6-.21-1.21-.24-1.81-.06-1.22.09-2.45.42-3.68.03,0,.05.02.08.02h14.96c1.55,0,2.8-1.25,2.8-2.8s-1.25-2.8-2.8-2.8h-12.2c1.48-1.99,3.43-3.95,5.83-5.81.53-.32,12.91-8.08,12.91-21.83,0-1.7-1.14-3.08-2.67-3.57-.34-.15-.72-.24-1.12-.24h-19.13c-1.55,0-2.8,1.25-2.8,2.8s1.25,2.8,2.8,2.8h15.13c-.26,1.99-.85,3.79-1.69,5.39-.13-.02-.25-.08-.38-.08h-13.06c-1.55,0-2.8,1.25-2.8,2.8s1.25,2.8,2.8,2.8h9.24c-1.81,1.74-3.37,2.76-3.53,2.87-10.72,8.25-12.65,16.36-12.37,21.7.37,7.27,5,14.17,12.69,18.93,1.04.65,1.93,1.33,2.75,2.03h-8.78c-1.55,0-2.8,1.25-2.8,2.8s1.25,2.8,2.8,2.8h13.06c.1,0,.18-.05.28-.06,1.13,2.11,1.65,4.03,1.85,5.33h-15.18c-1.55,0-2.8,1.25-2.8,2.8s1.25,2.8,2.8,2.8h18.85s.09.03.14.03h.15c2.03,0,3.71-1.6,3.79-3.65.02-.53.34-13.15-12.9-21.35Z"/>
  <path class="cls-2" d="M69.14,292.21c2.56-1.58,4.62-3.44,6.15-5.44h-12.5c-1.55,0-2.8-1.25-2.8-2.8s1.25-2.8,2.8-2.8h15.21c.13-.6.21-1.21.24-1.81.06-1.22-.09-2.45-.42-3.68-.03,0-.05.02-.08.02h-14.96c-1.55,0-2.8-1.25-2.8-2.8s1.25-2.8,2.8-2.8h12.2c-1.48-1.99-3.43-3.95-5.83-5.81-.53-.32-12.91-8.08-12.91-21.83,0-1.7,1.14-3.08,2.67-3.57.34-.15.72-.24,1.12-.24h19.13c1.55,0,2.8,1.25,2.8,2.8s-1.25,2.8-2.8,2.8h-15.13c.26,1.99.85,3.79,1.69,5.39.13-.02.25-.08.38-.08h13.06c1.55,0,2.8,1.25,2.8,2.8s-1.25,2.8-2.8,2.8h-9.24c1.81,1.74,3.37,2.76,3.53,2.87,10.72,8.25,12.65,16.36,12.37,21.7-.37,7.27-5,14.17-12.69,18.93-1.04.65-1.93,1.33-2.75,2.03h8.78c1.55,0,2.8,1.25,2.8,2.8s-1.25,2.8-2.8,2.8h-13.06c-.1,0-.18-.05-.28-.06-1.13,2.11-1.65,4.03-1.85,5.33h15.18c1.55,0,2.8,1.25,2.8,2.8s-1.25,2.8-2.8,2.8h-18.85s-.09.03-.14.03h-.15c-2.03,0-3.71-1.6-3.79-3.65-.02-.53-.34-13.15,12.9-21.35Z"/>
  <path class="cls-1" d="M307.74,207.87h-19.35v-14.41c0-3.13-2.53-5.66-5.66-5.66s-5.66,2.54-5.66,5.66v14.41h-22.54v-14.41c0-3.13-2.54-5.66-5.66-5.66s-5.66,2.54-5.66,5.66v14.41h-22.54v-14.41c0-3.13-2.54-5.66-5.66-5.66s-5.66,2.54-5.66,5.66v14.41h-24.41v-30.73c8.33-.73,23.63-3.64,34.9-14.91,9.48-9.48,13.97-22.63,13.35-39.08-.11-2.78-2.22-5.08-4.98-5.41-.89-.11-22-2.47-37.93,11.41-10.79,9.4-16.43,23.69-16.76,42.47,0,.4.13.76.21,1.14h-.11v35.12h-11.96v-82.21l37.28-37.28h17.57c2.34,6.55,8.55,11.28,15.89,11.28,9.34,0,16.94-7.6,16.94-16.94s-7.6-16.94-16.94-16.94c-7.34,0-13.55,4.73-15.89,11.28h-14.26v-13.64c6.55-2.34,11.28-8.55,11.28-15.89,0-9.34-7.6-16.94-16.94-16.94s-16.94,7.6-16.94,16.94c0,7.34,4.73,13.55,11.28,15.89v16.96l-29.27,29.27V32.83c6.55-2.34,11.28-8.55,11.28-15.89,0-9.34-7.6-16.94-16.94-16.94s-16.94,7.6-16.94,16.94c0,7.34,4.73,13.55,11.28,15.89v76.72l-29.18-29.18v-16.96c6.55-2.34,11.28-8.55,11.28-15.89,0-9.34-7.6-16.94-16.94-16.94s-16.94,7.6-16.94,16.94c0,7.34,4.73,13.55,11.27,15.89v13.64h-14.26c-2.34-6.55-8.55-11.28-15.89-11.28-9.34,0-16.94,7.6-16.94,16.94s7.6,16.94,16.94,16.94c7.34,0,13.55-4.73,15.89-11.28h17.57l37.19,37.19v82.3h-11.17v-35.12h-.11c.07-.38.21-.74.21-1.14-.34-18.78-5.98-33.07-16.76-42.47-15.93-13.88-37.04-11.52-37.93-11.41-2.77.33-4.88,2.63-4.98,5.41-.62,16.46,3.87,29.61,13.35,39.08,11.27,11.27,26.58,14.18,34.9,14.91v30.73h-23.67v-14.41c0-3.13-2.54-5.66-5.66-5.66s-5.66,2.54-5.66,5.66v14.41h-22.54v-14.41c0-3.13-2.54-5.66-5.66-5.66s-5.66,2.54-5.66,5.66v14.41h-22.54v-14.41c0-3.13-2.54-5.66-5.66-5.66s-5.66,2.54-5.66,5.66v14.41H5.66c-3.13,0-5.66,2.54-5.66,5.66s2.54,5.66,5.66,5.66h302.08c3.13,0,5.66-2.54,5.66-5.66s-2.54-5.66-5.66-5.66ZM197.64,137.75c8.03-7.04,18.23-8.61,24.22-8.86-.5,10.62-3.84,19.11-9.97,25.27-8.22,8.26-19.82,10.79-26.71,11.56,1.19-12.36,5.37-21.75,12.46-27.97ZM232.39,75.97c3.72,0,6.75,3.03,6.75,6.74s-3.03,6.74-6.75,6.74-6.75-3.03-6.75-6.74,3.03-6.74,6.75-6.74ZM189.84,47.52c0-3.72,3.03-6.74,6.75-6.74s6.75,3.03,6.75,6.74-3.03,6.74-6.75,6.74-6.75-3.03-6.75-6.74ZM79.67,89.46c-3.72,0-6.75-3.03-6.75-6.74s3.03-6.74,6.75-6.74,6.75,3.03,6.75,6.74-3.03,6.74-6.75,6.74ZM115.48,54.26c-3.72,0-6.75-3.03-6.75-6.74s3.03-6.74,6.75-6.74,6.75,3.03,6.75,6.74-3.03,6.74-6.75,6.74ZM100.87,154.16c-6.13-6.16-9.47-14.64-9.97-25.27,5.99.25,16.19,1.82,24.22,8.86,7.1,6.22,11.28,15.61,12.46,27.97-6.89-.77-18.49-3.31-26.71-11.56ZM155.99,23.68c-3.72,0-6.75-3.03-6.75-6.74s3.03-6.74,6.75-6.74,6.75,3.03,6.75,6.74-3.03,6.74-6.75,6.74Z"/>
</svg>